<svg width="132" height="131" xmlns="http://www.w3.org/2000/svg"><defs><linearGradient x1="50%" y1="0%" x2="50%" y2="99.409%" id="a"><stop stop-color="#3B55D5" offset="0%"/><stop stop-color="#00A9FF" offset="100%"/></linearGradient></defs><g fill="none"><path d="M88.949 81.841A22.73 22.73 0 0 0 89 80.317c0-.383-.063-.97-.225-1.764-.229-1.12-.618-2.452-1.187-3.984-1.387-3.735-3.685-8.235-6.932-13.399-3.66-5.82-8.38-12.261-14.156-19.293-5.776 7.032-10.497 13.474-14.156 19.293-3.247 5.164-5.545 9.664-6.932 13.4-.57 1.531-.958 2.864-1.187 3.983-.162.794-.225 1.381-.225 1.764 0 .818.044 1.627.13 2.422L23.043 106A50.065 50.065 0 0 1 16 80.317C16 61.766 32.833 34.993 66.5 0 100.167 34.993 117 61.766 117 80.317a50.067 50.067 0 0 1-6.49 24.729L88.949 81.84Z" fill="url(#a)"/><path fill="#00A9FF" d="M66.605 96 35 131h64z"/></g></svg>