<svg version="1.0" xmlns="http://www.w3.org/2000/svg" width="704" height="704" viewBox="0 0 528 528"><path d="M263.9 4c-.9 1.1-5.8 6.4-11 11.8-8.9 9.3-24.6 26.2-28.6 30.8-2.7 3.1-15.6 17.5-17.3 19.4-.8.9-3.7 4.3-6.5 7.5-2.7 3.3-5.4 6.5-6 7.1-.5.6-2.6 3.1-4.6 5.5-2 2.4-6.5 7.8-9.9 11.9-12.6 15.3-14.9 18.2-26.2 33-12.4 16.3-22.6 30.7-32.2 45.5-4.3 6.6-8.7 13.2-9.7 14.7-1.1 1.5-1.9 3-1.9 3.4 0 .3-.8 1.8-1.9 3.2-1 1.5-2.9 4.7-4.3 7.2s-3.5 6.3-4.8 8.5c-9.1 16.1-25 52.1-26.6 60.2-.2 1.2-.9 3.5-1.5 5-.6 1.6-1.1 3-1.1 3.3 0 .3-.2.9-.4 1.5-.4 1.5-2.5 11.7-3 15-.3 1.6-.7 4.1-1 5.5-.3 1.4-.7 7.3-.9 13.2-.3 5.8-.5 11-.6 11.5-.1.4 0 1 .1 1.3.1.3.3 2.7.5 5.5.4 8.1 1.5 17.5 2.2 20.3.3 1.3.7 3.2.8 4.1.8 7.7 6.7 27.9 11.6 39.6 3.8 9.3 9.8 21.6 10.9 22.5.4.3 1 1.3 1.3 2.4.7 1.8.8 1.8 2.5-.1 1.9-2.3 15.4-17.2 19.2-21.3 5.9-6.4 15-16.4 28.5-31.4 4.4-4.9 9.1-10.1 10.5-11.6 8.7-9.5 18.9-20.8 21.4-23.7 2.7-3.1 2.9-4 3.1-12.6.1-5 .8-10.6 1.4-12.2.7-1.7 1.3-3.2 1.3-3.5.3-2.6 5.1-14.8 9.3-23.8 2.5-5.1 4.5-9.6 4.5-10 .1-.4.7-1.4 1.3-2.2 1.3-1.7 3.2-4.8 5.9-10 1-1.9 2.6-4.7 3.6-6.2.9-1.4 3-4.8 4.6-7.5 4.7-7.7 22.6-34 25.1-36.9.6-.6 1.7-2.2 2.5-3.4.8-1.2 6.4-8.5 12.3-16.2 10.2-13.2 11.8-15.1 16-20.1l1.8-2.1 2.9 3.4c1.5 1.9 5.1 6.4 7.9 10 2.8 3.6 5.4 6.9 5.8 7.5.5.5 2.4 3 4.3 5.5s3.9 5 4.5 5.7c.5.7 1.6 1.9 2.3 2.7.6.8 1.2 2 1.2 2.6 0 .5.4 1 .8 1s1.6 1.5 2.7 3.2c1 1.8 2.4 3.9 3.1 4.5 2.2 2.3 21.4 31.2 21.4 32.2 0 .6.5 1.1 1 1.1.6 0 1 .7 1 1.5s.5 1.5 1 1.5c.6 0 1 .5 1 1 0 .6 1.8 4 4 7.6 3.6 5.9 13.4 25.5 17.5 34.7 4.4 10.1 7.1 21.3 7.4 30.2.1 3.3.9 4.9 4.7 9 2.6 2.8 8.5 9.2 13.3 14.4 4.7 5.1 11.2 12.1 14.4 15.5 13 13.8 15.7 16.7 25.7 27.6 5.8 6.3 13.4 14.4 16.8 18.2 3.5 3.7 7.2 7.6 8.2 8.8 2.5 2.8 3.4 2.5 5.6-1.8 1-2 2.2-3.9 2.7-4 .4-.2.5-.8.1-1.3-.3-.5 0-.9.7-.9s1-.3.6-.6c-.3-.3.5-2.7 1.9-5.3 2.3-4.7 8-19.9 9.5-25.6 2.1-8.2 4.1-16.2 4.4-18 .3-2.1 1.2-8.3 2.1-13.7.3-1.8.7-10.8.9-19.9.2-14.3-.8-27.4-2.9-35.4-.2-.6-.6-2.4-1-4-5.9-24.8-17.4-52.1-34.6-82-1.3-2.2-3-5.3-3.9-6.8-.9-1.6-2.1-3.6-2.6-4.5-4.8-7.7-8.9-14-16.2-24.9-4.8-7.1-9.8-14.5-11.1-16.6-1.4-2-2.9-3.7-3.4-3.7-.4 0-.8-.4-.8-1 0-1.2-27-37.1-30-40-.3-.3-2.1-2.5-4-5-1.9-2.4-4.2-5.2-5-6.1-.8-.9-2.5-2.8-3.7-4.2-1.3-1.4-2.3-2.7-2.3-3 0-.4-1-1.6-2.2-2.9-1.3-1.3-4.3-4.7-6.8-7.7-2.5-2.9-5.3-6.3-6.3-7.5-3.2-3.7-11.5-13.2-14.4-16.3-1.5-1.7-5.7-6.4-9.3-10.3-15.8-17.6-40.6-44-41.3-44-.1 0-.9.9-1.8 2z"/><path d="M259.9 393.2c-3.5 3.9-7.1 7.9-8 8.9-.8 1-4.6 5.2-8.5 9.4-7.9 8.8-8 8.9-19.1 21.1-4.5 4.9-9.1 10-10.3 11.4-1.2 1.4-5.2 5.8-8.8 9.9-3.7 4-7.8 8.6-9.2 10.1-10.2 11.3-16.8 18.6-18.5 20.5-1.7 1.9-11.6 12.8-20 22.1-11.5 12.6-16.1 17.8-16.3 18.5-.2.5 54.1.9 126.8.9 74.7 0 127-.4 126.8-.9-.1-.5-4.8-5.7-10.3-11.6-5.5-5.9-11.6-12.4-13.5-14.5-1.9-2.1-7.8-8.4-13-14.1-5.2-5.6-10.8-11.7-12.5-13.5-1.6-1.7-7.3-7.8-12.5-13.5-5.2-5.6-11-11.9-12.9-13.8-1.8-2-6.7-7.4-11-12-4.2-4.6-10-10.9-12.9-14-2.9-3.1-7.6-8.2-10.5-11.3-2.9-3.2-8.4-9.1-12.3-13.3l-7.1-7.5-6.4 7.2z"/></svg>