<?xml version="1.0" encoding="UTF-8"?>
<svg width="1396px" height="134px" viewBox="0 0 1396 134" version="1.1" xmlns="http://www.w3.org/2000/svg" xmlns:xlink="http://www.w3.org/1999/xlink">
    <!-- Generator: Sketch 53.2 (72643) - https://sketchapp.com -->
    <title>logo</title>
    <desc>Created with Sketch.</desc>
    <defs>
        <linearGradient x1="50%" y1="0%" x2="50%" y2="99.4091137%" id="linearGradient-1">
            <stop stop-color="#FFFFFF" offset="0%"></stop>
            <stop stop-color="#FFFFFF" offset="100%"></stop>
        </linearGradient>
    </defs>
    <g id="Page-1" stroke="none" stroke-width="1" fill="none" fill-rule="evenodd">
        <g id="Artboard" transform="translate(-329.000000, -245.000000)">
            <g id="logo" transform="translate(329.000000, 245.000000)">
                <g id="Group" fill-rule="nonzero">
                    <path d="M72.9489727,83.0274045 C72.9828095,82.5226476 73,82.0133313 73,81.5 C73,81.1161772 72.9368841,80.5275558 72.7746888,79.731539 C72.5461586,78.6099657 72.1573498,77.2744042 71.5883942,75.739004 C70.2010139,71.9949795 67.9025583,67.4848367 64.6559105,62.3094873 C60.996804,56.4766541 56.2759328,50.0199716 50.5,42.9726136 C44.7240672,50.0199716 40.003196,56.4766541 36.3440895,62.3094873 C33.0974417,67.4848367 30.7989861,71.9949795 29.4116058,75.739004 C28.8426502,77.2744042 28.4538414,78.6099657 28.2253112,79.731539 C28.0631159,80.5275558 28,81.1161772 28,81.5 C28,82.3202342 28.0438903,83.1302172 28.1294506,83.9277286 L7.04397764,107.241406 C2.56926199,99.7035593 0,90.9018213 0,81.5 C0,62.9064134 16.8333333,36.0730801 50.5,1 C84.1666667,36.0730801 101,62.9064134 101,81.5 C101,90.5069759 98.6420076,98.9632131 94.509661,106.285073 L72.9489727,83.0274045 Z" id="Combined-Shape" fill="url(#linearGradient-1)"></path>
                    <path d="M156,132 L156,19.421875 L156,1 L208.417722,1 C218.048993,1 226.082035,2.42853389 232.517089,5.28564453 C238.952142,8.14275517 243.789013,12.0978751 247.027848,17.151123 C250.266683,22.204371 251.886076,28.0144528 251.886076,34.581543 C251.886076,39.6987561 250.863301,44.186911 248.817722,48.0461426 C246.772142,51.9053741 243.970165,55.0609415 240.411709,57.5129395 C236.853252,59.9649374 232.794116,61.7026316 228.234177,62.7260742 L228.234177,64.0053711 C233.220278,64.2185883 237.897341,65.6258008 242.265506,68.2270508 C246.633672,70.8283008 250.181421,74.4635997 252.908861,79.1330566 C255.636301,83.8025136 257,89.3567386 257,95.7958984 C257,102.74678 255.284722,108.940647 251.854114,114.377686 C248.423506,119.814724 243.362903,124.110987 236.672152,127.266602 C229.981401,130.422216 221.735281,132 211.933544,132 L156,132 Z M183.679114,109.356445 L206.244304,109.356445 C213.957844,109.356445 219.583105,107.874608 223.120253,104.910889 C226.657402,101.947169 228.425949,97.9920495 228.425949,93.0454102 C228.425949,89.4207176 227.552329,86.2225073 225.805063,83.4506836 C224.057797,80.6788598 221.575438,78.5040769 218.357911,76.9262695 C215.140385,75.3484622 211.315634,74.5595703 206.883544,74.5595703 L183.679114,74.5595703 L183.679114,109.356445 Z M183.679114,55.8178711 L204.198734,55.8178711 C207.99158,55.8178711 211.368867,55.146247 214.330696,53.8029785 C217.292525,52.4597101 219.636384,50.5514447 221.362342,48.078125 C223.0883,45.6048053 223.951266,42.6411306 223.951266,39.1870117 C223.951266,34.4535896 222.278603,30.6370588 218.933228,27.7373047 C215.587852,24.8375506 210.846866,23.3876953 204.710127,23.3876953 L183.679114,23.3876953 L183.679114,55.8178711 Z" id="Combined-Shape" fill="#FFFFFF"></path>
                    <polygon id="Path-Copy" fill="#FFFFFF" points="51.1043141 97 19.4494382 132 83.5505618 132"></polygon>
                    <path d="M401,67 C401,81.223772 398.295908,93.3244115 392.887643,103.302281 C387.479379,113.280151 380.125959,120.890817 370.827164,126.134506 C361.528369,131.378195 351.086085,134 339.5,134 C327.828409,134 317.354061,131.36758 308.076642,126.102662 C298.799224,120.837743 291.46718,113.216463 286.080292,103.238593 C280.693404,93.2607232 278,81.181313 278,67 C278,52.776228 280.693404,40.6755885 286.080292,30.6977186 C291.46718,20.7198487 298.799224,13.1091834 308.076642,7.8654943 C317.354061,2.62180521 327.828409,1.42108547e-14 339.5,1.42108547e-14 C351.086085,1.42108547e-14 361.528369,2.62180521 370.827164,7.8654943 C380.125959,13.1091834 387.479379,20.7198487 392.887643,30.6977186 C398.295908,40.6755885 401,52.776228 401,67 Z M372.847237,67 C372.847237,57.7863925 371.468471,50.0165082 368.710897,43.6901141 C365.953323,37.36372 362.073539,32.5659226 357.071429,29.2965779 C352.069318,26.0272333 346.212234,24.3925856 339.5,24.3925856 C332.787766,24.3925856 326.930682,26.0272333 321.928571,29.2965779 C316.926461,32.5659226 313.046677,37.36372 310.289103,43.6901141 C307.531529,50.0165082 306.152763,57.7863925 306.152763,67 C306.152763,76.2136075 307.531529,83.9834918 310.289103,90.3098859 C313.046677,96.63628 316.926461,101.434077 321.928571,104.703422 C326.930682,107.972767 332.787766,109.607414 339.5,109.607414 C346.212234,109.607414 352.069318,107.972767 357.071429,104.703422 C362.073539,101.434077 365.953323,96.63628 368.710897,90.3098859 C371.468471,83.9834918 372.847237,76.2136075 372.847237,67 Z" id="Combined-Shape" fill="#FFFFFF"></path>
                    <path d="M454,30.0400391 C454,46.5429687 454,80.5296224 454,132 L426,132 L426,1 C444.666667,3.85709635 454,13.5371094 454,30.0400391 Z" id="Path" fill="#FFFFFF"></path>
                    <path d="M949,116.989583 L949,1 C967.495805,5.07242839 976.743707,14.7524414 976.743707,30.0400391 C976.743707,45.3276367 976.743707,71.702474 976.743707,109.164551 L1033,109.164551 C1033,112.37985 1033,116.989583 1033,122.99375 C1033,128.997917 1028.48687,132 1019.46062,132 C987.640978,132 968.163666,132 961.02868,132 C953.893694,132 949.884134,126.996528 949,116.989583 Z" id="Path" fill="#FFFFFF"></path>
                    <path d="M1308,132 L1308,1 L1395.74566,1 C1392.73603,16.1383464 1384.21001,23.7501628 1370.1676,23.8354492 C1356.12519,23.9207357 1344.57992,23.9207357 1335.53179,23.8354492 L1335.53179,55.050293 L1391.23121,55.050293 C1391.23121,70.2739258 1384.21001,77.8857422 1370.1676,77.8857422 C1356.12519,77.8857422 1344.57992,77.8857422 1335.53179,77.8857422 L1335.53179,109.164551 L1396,109.164551 C1392.82081,124.388184 1384.21001,132 1370.1676,132 C1356.12519,132 1335.40266,132 1308,132 Z" id="Path" fill="#FFFFFF"></path>
                    <path d="M731.799611,132 L704,132 L704,1 L755.875486,1 C765.805497,1 774.290821,2.75901561 781.331712,6.27709961 C788.372603,9.79518361 793.744145,14.7630701 797.446498,21.1809082 C801.148851,27.5987463 803,35.1358617 803,43.7924805 C803,52.4917427 801.11675,59.9648939 797.350195,66.2121582 C793.583639,72.4594225 788.137195,77.2460771 781.0107,80.5722656 C773.884206,83.8984541 765.270479,85.5615234 755.169261,85.5615234 L731.799611,85.5615234 L731.799611,132 Z M731.799611,63.3017578 L750.675097,63.3017578 C755.982517,63.3017578 760.391033,62.5768302 763.900778,61.1269531 C767.410523,59.6770761 770.032092,57.5022931 771.765564,54.6025391 C773.499036,51.702785 774.365759,48.0994681 774.365759,43.7924805 C774.365759,39.4428493 773.499036,35.7755683 771.765564,32.7905273 C770.032092,29.8054864 767.399823,27.5347571 763.868677,25.9782715 C760.337531,24.4217858 755.896914,23.6435547 750.546693,23.6435547 L731.799611,23.6435547 L731.799611,63.3017578 Z" id="Combined-Shape" fill="#FFFFFF"></path>
                    <path d="M774.665984,72 L807,132 C806.89192,132 802.024562,132 792.397925,132 C782.771288,132 775.655677,128.469663 771.051092,121.408989 L764.449363,108.888027 L745,72 L774.665984,72 Z" id="Path" fill="#FFFFFF"></path>
                    <path d="M854.799611,132 C852.455988,131.878704 847.502897,131.84838 839.940337,131.909028 C828.596498,132 827,115.988889 827,110.485069 C827,106.815856 827,70.3208333 827,1 L878.875486,1 C888.848299,1 897.344323,2.88694402 904.363813,6.66088867 C911.383304,10.4348333 916.744145,15.6585767 920.446498,22.3322754 C924.148851,29.0059741 926,36.6923393 926,45.3916016 C926,54.0908638 924.11675,61.7665683 920.350195,68.4189453 C916.583639,75.0713223 911.137195,80.2524229 904.0107,83.9624023 C896.884206,87.6723818 888.270479,89.5273437 878.169261,89.5273437 L854.799611,89.5273437 L854.799611,132 Z M873.675097,67.331543 C879.025319,67.331543 883.444535,66.404062 886.932879,64.5490723 C890.421224,62.6940825 893.032092,60.114193 894.765564,56.8093262 C896.499036,53.5044594 897.365759,49.6985892 897.365759,45.3916016 C897.365759,41.0419704 896.499036,37.2361003 894.765564,33.973877 C893.032092,30.7116536 890.410523,28.1744068 886.900778,26.3620605 C883.391033,24.5497142 878.939716,23.6435547 873.546693,23.6435547 L854.799611,23.6435547 L854.799611,67.331543 L873.675097,67.331543 Z" id="Combined-Shape" fill="#FFFFFF"></path>
                    <path d="M482,116.989583 L482,1 C500.495805,5.07242839 509.743707,14.7524414 509.743707,30.0400391 C509.743707,45.3276367 509.743707,71.702474 509.743707,109.164551 L566,109.164551 C566,112.37985 566,116.989583 566,122.99375 C566,128.997917 561.486872,132 552.460615,132 C520.640978,132 501.163666,132 494.02868,132 C486.893694,132 482.884134,126.996528 482,116.989583 Z" id="Path" fill="#FFFFFF"></path>
                    <path d="M1091.39201,101.944693 C1085.67655,120.05645 1072.54588,130.074885 1052,132 L1097.19635,1 L1132.86758,1 L1178,132 C1157.99513,132 1144.85687,121.981564 1138.58522,101.944693 L1115.54338,30.9355469 L1114.52055,30.9355469 L1091.39201,102.073208 C1097.10747,83.8757745 1097.10747,83.8329362 1091.39201,101.944693 Z" id="Path" fill="#FFFFFF"></path>
                    <polygon id="Path" fill="#FFFFFF" points="1080 80 1150 80 1150 102 1080 102"></polygon>
                    <path d="M1177,23.8354492 L1177,1 L1285,1 C1276.84936,16.2236328 1268.12511,23.8354492 1258.82725,23.8354492 C1249.5294,23.8354492 1244.83391,23.8354492 1244.74078,23.8354492 L1244.74078,132 L1217.25922,132 L1217.25922,23.8354492 L1177,23.8354492 Z" id="Path" fill="#FFFFFF"></path>
                    <path d="M589,132 L589,1 L676.745665,1 C673.736031,16.1383464 665.21001,23.7501628 651.167602,23.8354492 C637.125194,23.9207357 625.579924,23.9207357 616.531792,23.8354492 L616.531792,55.050293 L672.231214,55.050293 C672.231214,70.2739258 665.21001,77.8857422 651.167602,77.8857422 C637.125194,77.8857422 625.579924,77.8857422 616.531792,77.8857422 L616.531792,109.164551 L677,109.164551 C673.820809,124.388184 665.21001,132 651.167602,132 C637.125194,132 616.40266,132 589,132 Z" id="Path" fill="#FFFFFF"></path>
                </g>
                <path d="" id="Path-2" stroke="#FFFFFF"></path>
            </g>
        </g>
    </g>
</svg>
