<svg class="icon" width="41" height="32" viewBox="0 0 41 32" fill="none" xmlns="http://www.w3.org/2000/svg">
<path d="M25.468 31.3C24.4787 31.3 23.984 30.8053 23.984 29.816V18.262C23.984 17.838 24.1253 17.4493 24.408 17.096L33.948 2.044C34.372 1.47866 34.902 1.05466 35.538 0.771996C36.174 0.489329 36.7747 0.347995 37.34 0.347995H39.142C39.6367 0.347995 39.99 0.559995 40.202 0.983994C40.4847 1.33733 40.52 1.76133 40.308 2.256L35.75 12.75C35.4673 13.5273 35.3613 14.128 35.432 14.552C35.5733 14.976 35.962 15.2587 36.598 15.4L38.294 15.506C39.142 15.5767 39.7073 15.7533 39.99 16.036C40.2727 16.3187 40.414 16.8133 40.414 17.52V29.604C40.414 30.7347 39.884 31.3 38.824 31.3H25.468ZM1.724 31.3C0.734667 31.3 0.24 30.8053 0.24 29.816V18.262C0.24 17.838 0.346 17.4493 0.558 17.096L10.204 2.044C10.5573 1.47866 11.052 1.05466 11.688 0.771996C12.3947 0.489329 13.0307 0.347995 13.596 0.347995H15.292C15.8573 0.347995 16.246 0.559995 16.458 0.983994C16.67 1.33733 16.7053 1.76133 16.564 2.256L12.006 12.75C11.6527 13.5273 11.5113 14.128 11.582 14.552C11.7233 14.976 12.112 15.2587 12.748 15.4L14.55 15.506C15.3273 15.5767 15.8573 15.7533 16.14 16.036C16.4227 16.3187 16.564 16.8133 16.564 17.52V29.604C16.564 30.7347 16.0693 31.3 15.08 31.3H1.724Z" fill="currentColor"/>
</svg>
