<svg width="74" height="74" xmlns="http://www.w3.org/2000/svg"><path d="M24.553 35.636c-.562.58-.833 1.168-.807 1.742.032.859.71 1.497.716 1.504.323.29.394.761.155 1.123-.084.135-.826 1.4.22 2.355 1.232 1.123 4.782.859 6.763.426l.084-.019c.355-.058.73-.136 1.123-.226.413-.148.98-.129 1.407.252.858.761.768 2.49-.317 5.776-.71 2.155-.735 3.782-.077 4.692.555.768 1.478.864 1.82.871.155-.265.194-1.149.084-1.872a.817.817 0 0 1 .038-.432c.123-.336 2.956-8.086 5.854-10.384.762-.82 1.084-1.781 1.2-2.214a2.73 2.73 0 0 1-.122-.8V27.936c0-.193.02-.387.058-.567l-.652-.078h-.006c-.046-.006-4.24-.549-8.39-.458h-.09c-1.95-.155-3.537-.11-4.705.142-1.459.31-2.42.865-2.853 1.64-.452.806-.174 1.658-.174 1.664a.88.88 0 0 1-.297.994c-.852.639-1.258 1.388-1.213 2.233.032.62.297 1.071.297 1.078a.867.867 0 0 1-.116 1.052Zm24.762-8.642v.007H45.38a.943.943 0 0 0-.943.942V38.43c0 .516.42.942.943.942h3.936c.517 0 .943-.42.943-.942V27.936a.943.943 0 0 0-.943-.942ZM22.9 34.881a4.36 4.36 0 0 1-.264-1.298c-.045-.903.18-2.187 1.465-3.349-.084-.594-.084-1.53.439-2.472.684-1.232 2.033-2.071 4.007-2.49.84-.182 1.846-.272 3.001-.272.671 0 1.394.032 2.162.09 4.24-.083 8.37.44 8.603.471l1.517.181a2.68 2.68 0 0 1 1.549-.49h3.936c1.478 0 2.685 1.2 2.685 2.684v10.488c0 1.478-1.2 2.684-2.685 2.684H45.38c-.465 0-.898-.116-1.278-.322a6.933 6.933 0 0 1-1.265 1.897c-.032.032-.065.065-.103.09-2.02 1.556-4.408 7.158-5.26 9.442.09.71.174 2.246-.542 3.079a1.621 1.621 0 0 1-1.246.567c-.503 0-2.214-.116-3.285-1.594-1.02-1.406-1.071-3.51-.168-6.26.762-2.31.833-3.336.807-3.75-.348.078-.69.15-1.013.207h-.007a20.13 20.13 0 0 1-3.175.407c-2.413.116-4.156-.303-5.182-1.24-1.4-1.277-1.24-2.923-.82-3.968-.361-.471-.8-1.24-.839-2.22-.038-.89.265-1.756.897-2.562ZM37 74C16.565 74 0 57.435 0 37S16.565 0 37 0s37 16.565 37 37-16.565 37-37 37Zm0-2c19.33 0 35-15.67 35-35S56.33 2 37 2 2 17.67 2 37s15.67 35 35 35Z" fill="#3D3E40" fill-rule="evenodd"/></svg>