<svg class="icon" width="41" height="32" fill="none" xmlns="http://www.w3.org/2000/svg"><path d="M25.468 31.3c-.99 0-1.484-.495-1.484-1.484V18.262c0-.424.141-.813.424-1.166l9.54-15.052a3.98 3.98 0 0 1 1.59-1.272c.636-.283 1.237-.424 1.802-.424h1.802c.495 0 .848.212 1.06.636.283.353.318.777.106 1.272L35.75 12.75c-.283.777-.389 1.378-.318 1.802.141.424.53.707 1.166.848l1.696.106c.848.07 1.413.247 1.696.53.283.283.424.777.424 1.484v12.084c0 1.13-.53 1.696-1.59 1.696H25.468Zm-23.744 0c-.99 0-1.484-.495-1.484-1.484V18.262c0-.424.106-.813.318-1.166l9.646-15.052c.353-.565.848-.99 1.484-1.272.707-.283 1.343-.424 1.908-.424h1.696c.565 0 .954.212 1.166.636.212.353.247.777.106 1.272L12.006 12.75c-.353.777-.495 1.378-.424 1.802.141.424.53.707 1.166.848l1.802.106c.777.07 1.307.247 1.59.53.283.283.424.777.424 1.484v12.084c0 1.13-.495 1.696-1.484 1.696H1.724Z" fill="currentColor"/></svg>