<svg width="14" height="4" xmlns="http://www.w3.org/2000/svg"><path class="icon icon--elipsis" d="M7 .32c.453 0 .847.167 1.18.5.333.333.5.727.5 1.18 0 .453-.167.847-.5 1.18-.333.333-.727.5-1.18.5-.453 0-.847-.167-1.18-.5A1.614 1.614 0 0 1 5.32 2c0-.453.167-.847.5-1.18.333-.333.727-.5 1.18-.5Zm5 0c.453 0 .847.167 1.18.5.333.333.5.727.5 1.18 0 .453-.167.847-.5 1.18-.333.333-.727.5-1.18.5-.453 0-.847-.167-1.18-.5a1.614 1.614 0 0 1-.5-1.18c0-.453.167-.847.5-1.18.333-.333.727-.5 1.18-.5Zm-10 0c.453 0 .847.167 1.18.5.333.333.5.727.5 1.18 0 .453-.167.847-.5 1.18-.333.333-.727.5-1.18.5-.453 0-.847-.167-1.18-.5A1.614 1.614 0 0 1 .32 2c0-.453.167-.847.5-1.18.333-.333.727-.5 1.18-.5Z"/></svg>