<svg width="12" height="12" xmlns="http://www.w3.org/2000/svg"><path d="M7.523 7.556c-.56 0-1.076-.14-1.548-.42a3.106 3.106 0 0 1-1.119-1.128 3.024 3.024 0 0 1-.412-1.547c0-.56.138-1.076.412-1.547a3.042 3.042 0 0 1 1.12-1.12 3.024 3.024 0 0 1 1.547-.411c.56 0 1.075.137 1.547.411.472.275.848.648 1.128 1.12.28.471.42.987.42 1.547 0 .56-.14 1.075-.42 1.547-.28.472-.656.848-1.128 1.128-.472.28-.988.42-1.547.42Zm-4.116 0L0 10.963 1.037 12l3.407-3.424v-.543l.198-.181c.384.34.826.6 1.325.782.5.18 1.018.271 1.556.271.812 0 1.56-.197 2.247-.592a4.395 4.395 0 0 0 1.62-1.597c.407-.691.61-1.443.61-2.255 0-.812-.2-1.561-.6-2.247A4.4 4.4 0 0 0 9.77.593 4.423 4.423 0 0 0 7.523 0C6.71 0 5.959.203 5.267.61A4.35 4.35 0 0 0 3.68 2.221a4.427 4.427 0 0 0-.584 2.239c0 .549.09 1.073.271 1.572.181.5.442.94.782 1.325l-.18.198h-.56Z" fill-rule="evenodd"/></svg>