<?xml version="1.0" encoding="UTF-8"?>
<svg width="132px" height="131px" viewBox="0 0 132 131" version="1.1" xmlns="http://www.w3.org/2000/svg" xmlns:xlink="http://www.w3.org/1999/xlink">
    <!-- Generator: Sketch 53.2 (72643) - https://sketchapp.com -->
    <title>favicon</title>
    <desc>Created with Sketch.</desc>
    <defs>
        <linearGradient x1="50%" y1="0%" x2="50%" y2="99.4091137%" id="linearGradient-1">
            <stop stop-color="#3B55D5" offset="0%"></stop>
            <stop stop-color="#00A9FF" offset="100%"></stop>
        </linearGradient>
    </defs>
    <g id="favicon" stroke="none" stroke-width="1" fill="none" fill-rule="evenodd">
        <path d="M88.9489727,81.8410188 C88.9828095,81.3374088 89,80.8292498 89,80.3170849 C89,79.9341342 88.9368841,79.3468504 88.7746888,78.5526422 C88.5461586,77.4336175 88.1573498,76.1010907 87.5883942,74.5691792 C86.2010139,70.8336621 83.9025583,66.3337673 80.6559105,61.1701776 C76.996804,55.3505979 72.2759328,48.9085865 66.5,41.8772419 C60.7240672,48.9085865 56.003196,55.3505979 52.3440895,61.1701776 C49.0974417,66.3337673 46.7989861,70.8336621 45.4116058,74.5691792 C44.8426502,76.1010907 44.4538414,77.4336175 44.2253112,78.5526422 C44.0631159,79.3468504 44,79.9341342 44,80.3170849 C44,81.1354553 44.0438903,81.9435978 44.1294506,82.7392971 L23.0439776,106 C18.569262,98.4792814 16,89.697543 16,80.3170849 C16,61.7657474 32.8333333,34.9933857 66.5,0 C100.166667,34.9933857 117,61.7657474 117,80.3170849 C117,89.3035947 114.642008,97.7406174 110.509661,105.045841 L88.9489727,81.8410188 Z" id="Combined-Shape" fill="url(#linearGradient-1)" fill-rule="nonzero"></path>
        <polygon id="Path-Copy" fill="#00A9FF" fill-rule="nonzero" points="66.6049383 96 35 131 99 131"></polygon>
    </g>
</svg>