<?xml version="1.0" standalone="no"?>
<!DOCTYPE svg PUBLIC "-//W3C//DTD SVG 20010904//EN"
 "http://www.w3.org/TR/2001/REC-SVG-20010904/DTD/svg10.dtd">
<svg version="1.0" xmlns="http://www.w3.org/2000/svg"
 width="528.000000pt" height="528.000000pt" viewBox="0 0 528.000000 528.000000"
 preserveAspectRatio="xMidYMid meet">
<metadata>
Created by potrace 1.14, written by Peter Selinger 2001-2017
</metadata>
<g transform="translate(0.000000,528.000000) scale(0.100000,-0.100000)"
fill="#000000" stroke="none">
<path d="M2639 5240 c-9 -11 -58 -64 -110 -118 -89 -93 -246 -262 -286 -308
-27 -31 -156 -175 -173 -194 -8 -9 -37 -43 -65 -75 -27 -33 -54 -65 -60 -71
-5 -6 -26 -31 -46 -55 -20 -24 -65 -78 -99 -119 -126 -153 -149 -182 -262
-330 -124 -163 -226 -307 -322 -455 -43 -66 -87 -132 -97 -147 -11 -15 -19
-30 -19 -34 0 -3 -8 -18 -19 -32 -10 -15 -29 -47 -43 -72 -14 -25 -35 -63 -48
-85 -91 -161 -250 -521 -266 -602 -2 -12 -9 -35 -15 -50 -6 -16 -11 -30 -11
-33 0 -3 -2 -9 -4 -15 -4 -15 -25 -117 -30 -150 -3 -16 -7 -41 -10 -55 -3 -14
-7 -73 -9 -132 -3 -58 -5 -110 -6 -115 -1 -4 0 -10 1 -13 1 -3 3 -27 5 -55 4
-81 15 -175 22 -203 3 -13 7 -32 8 -41 8 -77 67 -279 116 -396 38 -93 98 -216
109 -225 4 -3 10 -13 13 -24 7 -18 8 -18 25 1 19 23 154 172 192 213 59 64
150 164 285 314 44 49 91 101 105 116 87 95 189 208 214 237 27 31 29 40 31
126 1 50 8 106 14 122 7 17 13 32 13 35 3 26 51 148 93 238 25 51 45 96 45
100 1 4 7 14 13 22 13 17 32 48 59 100 10 19 26 47 36 62 9 14 30 48 46 75 47
77 226 340 251 369 6 6 17 22 25 34 8 12 64 85 123 162 102 132 118 151 160
201 l18 21 29 -34 c15 -19 51 -64 79 -100 28 -36 54 -69 58 -75 5 -5 24 -30
43 -55 19 -25 39 -50 45 -57 5 -7 16 -19 23 -27 6 -8 12 -20 12 -26 0 -5 4
-10 8 -10 4 0 16 -15 27 -32 10 -18 24 -39 31 -45 22 -23 214 -312 214 -322 0
-6 5 -11 10 -11 6 0 10 -7 10 -15 0 -8 5 -15 10 -15 6 0 10 -5 10 -10 0 -6 18
-40 40 -76 36 -59 134 -255 175 -347 44 -101 71 -213 74 -302 1 -33 9 -49 47
-90 26 -28 85 -92 133 -144 47 -51 112 -121 144 -155 130 -138 157 -167 257
-276 58 -63 134 -144 168 -182 35 -37 72 -76 82 -88 25 -28 34 -25 56 18 10
20 22 39 27 40 4 2 5 8 1 13 -3 5 0 9 7 9 7 0 10 3 6 6 -3 3 5 27 19 53 23 47
80 199 95 256 21 82 41 162 44 180 3 21 12 83 21 137 3 18 7 108 9 199 2 143
-8 274 -29 354 -2 6 -6 24 -10 40 -59 248 -174 521 -346 820 -13 22 -30 53
-39 68 -9 16 -21 36 -26 45 -48 77 -89 140 -162 249 -48 71 -98 145 -111 166
-14 20 -29 37 -34 37 -4 0 -8 4 -8 10 0 12 -270 371 -300 400 -3 3 -21 25 -40
50 -19 24 -42 52 -50 61 -8 9 -25 28 -37 42 -13 14 -23 27 -23 30 0 4 -10 16
-22 29 -13 13 -43 47 -68 77 -25 29 -53 63 -63 75 -32 37 -115 132 -144 163
-15 17 -57 64 -93 103 -158 176 -406 440 -413 440 -1 0 -9 -9 -18 -20z"/>
<path d="M2599 1348 c-35 -39 -71 -79 -80 -89 -8 -10 -46 -52 -85 -94 -79 -88
-80 -89 -191 -211 -45 -49 -91 -100 -103 -114 -12 -14 -52 -58 -88 -99 -37
-40 -78 -86 -92 -101 -102 -113 -168 -186 -185 -205 -17 -19 -116 -128 -200
-221 -115 -126 -161 -178 -163 -185 -2 -5 541 -9 1268 -9 747 0 1270 4 1268 9
-1 5 -48 57 -103 116 -55 59 -116 124 -135 145 -19 21 -78 84 -130 141 -52 56
-108 117 -125 135 -16 17 -73 78 -125 135 -52 56 -110 119 -129 138 -18 20
-67 74 -110 120 -42 46 -100 109 -129 140 -29 31 -76 82 -105 113 -29 32 -84
91 -123 133 l-71 75 -64 -72z"/>
</g>
</svg>
